<?xml version="1.0" encoding="UTF-8" standalone="no"?>
<svg
   viewBox="0 0 1440 1866.6667"
   height="1866.6667"
   width="1440"
   xml:space="preserve"
   id="svg2"
   version="1.1"
   sodipodi:docname="logo-red (Copy).svg"
   inkscape:version="1.2.2 (b0a8486541, 2022-12-01)"
   xmlns:inkscape="http://www.inkscape.org/namespaces/inkscape"
   xmlns:sodipodi="http://sodipodi.sourceforge.net/DTD/sodipodi-0.dtd"
   xmlns="http://www.w3.org/2000/svg"
   xmlns:svg="http://www.w3.org/2000/svg"
   xmlns:rdf="http://www.w3.org/1999/02/22-rdf-syntax-ns#"
   xmlns:cc="http://creativecommons.org/ns#"
   xmlns:dc="http://purl.org/dc/elements/1.1/"><sodipodi:namedview
     id="namedview70"
     pagecolor="#ffffff"
     bordercolor="#000000"
     borderopacity="0.25"
     inkscape:showpageshadow="2"
     inkscape:pageopacity="0.0"
     inkscape:pagecheckerboard="0"
     inkscape:deskcolor="#d1d1d1"
     showgrid="false"
     inkscape:zoom="0.53842547"
     inkscape:cx="718.76243"
     inkscape:cy="1054.9278"
     inkscape:window-width="1920"
     inkscape:window-height="1011"
     inkscape:window-x="0"
     inkscape:window-y="0"
     inkscape:window-maximized="1"
     inkscape:current-layer="svg2" /><metadata
     id="metadata8"><rdf:RDF><cc:Work
         rdf:about=""><dc:format>image/svg+xml</dc:format><dc:type
           rdf:resource="http://purl.org/dc/dcmitype/StillImage" /></cc:Work></rdf:RDF></metadata><defs
     id="defs6"><clipPath
       id="clipPath34"
       clipPathUnits="userSpaceOnUse"><path
         id="path32"
         d="M 0,1400 H 1080 V 0 H 0 Z" /></clipPath></defs><g
     transform="matrix(1.3333333,0,0,-1.3333333,0,1866.6667)"
     id="g10"><g
   transform="translate(202.3992,501.5252)"
   id="g12"><path
     id="path14"
     style="fill:#d61c54;fill-opacity:1;fill-rule:nonzero;stroke:none"
     d="M 0,0 840.275,-462.428 H -165.034 l -0.039,360.722 z" /></g><g
   transform="translate(201.0477,468.4135)"
   id="g16"><path
     id="path18"
     style="fill:#ffffff;fill-opacity:1;fill-rule:nonzero;stroke:none"
     d="m 0,0 58.517,-111.209 v -281.5 l -186.359,-0.477 v 314.37 z" /></g><g
   transform="translate(877.6008,501.5252)"
   id="g20"><path
     id="path22"
     style="fill:#d61c54;fill-opacity:1;fill-rule:nonzero;stroke:none"
     d="M 0,0 -840.275,-462.428 H 165.034 l 0.039,360.722 z" /></g><g
   transform="translate(873.1771,456.3862)"
   id="g24"><path
     id="path26"
     style="fill:#ffffff;fill-opacity:1;fill-rule:nonzero;stroke:none"
     d="m 0,0 -698.512,-381.158 h 426.452 l 363.028,207.28 z" /></g><g
   id="g28"><g
     clip-path="url(#clipPath34)"
     id="g30"><g
       transform="translate(643.2864,849.4987)"
       id="g36"><path
         id="path38"
         style="fill:#d61c54;fill-opacity:1;fill-rule:nonzero;stroke:none"
         d="m 0,0 c -3.255,10.147 -6.401,20.148 -9.684,30.105 -1.57,4.763 -4.822,4.155 -8.438,2.41 -8.486,-4.095 -16.979,-8.179 -25.537,-12.12 -23.757,-10.938 -45.46,-4.284 -66.111,8.405 -8.072,4.96 -11.28,25.695 -5.506,33.298 1.816,2.392 5.13,4.579 8.053,5.057 15.637,9.856 102.335,40.301 120.722,43.286 6.697,1.088 11.747,1.461 15.656,-3.343 9.943,-12.223 20.946,-23.924 28.812,-37.415 11.929,-20.46 21.539,-42.27 32.157,-63.494 0.921,-1.841 2.53,-4.798 3.649,-6.525 6.494,-10.029 6.393,-17.145 -1.212,-27.299 -12.889,-17.212 -25.797,-34.427 -39.28,-51.173 -22.019,-27.349 -44.355,-54.448 -66.901,-81.365 -5.61,-6.697 -7.995,-13.594 -7.399,-22.261 2.647,-38.5 6.867,-260.165 6.867,-260.165 l -89.135,-49.028 -115.605,63.637 c 0,0 3.33,178.568 3.539,205.427 0.122,15.785 -4.701,29.808 -15.928,40.498 -23.751,22.616 -37.047,50.308 -42.685,82.333 -1.089,6.188 -2.97,12.193 -4.775,18.211 -1.888,6.298 -0.448,11.898 2.126,17.598 1.843,4.081 4.498,5.183 8.369,3.108 2.89,-1.55 5.796,-3.134 8.457,-5.036 11.604,-8.291 23.219,-16.573 34.624,-25.131 4.305,-3.231 10.277,-2.962 14.237,0.682 8.493,7.816 17.374,15.22 25.705,23.201 22.737,21.779 50.884,29.142 81.163,30.894 2.751,0.16 5.679,-0.613 8.342,-1.501 6.995,-2.333 8.835,-6.758 5.422,-13.216 -2.144,-4.059 -4.62,-7.978 -7.274,-11.728 -14.955,-21.132 -30.046,-42.168 -44.997,-63.304 -2.65,-3.747 -4.962,-7.75 -7.185,-11.77 -0.462,-0.834 -0.242,-2.791 0.396,-3.285 0.704,-0.545 2.668,-0.469 3.36,0.147 3.419,3.05 7.182,5.961 9.77,9.659 17.355,24.8 34.988,49.432 51.469,74.809 18.111,27.886 42.224,46.502 75.016,53.363 2.353,0.493 4.651,1.263 6.962,1.948 C -1.961,-0.84 -1.182,-0.466 0,0" /></g><g
       transform="translate(437.6685,929.399)"
       id="g40"><path
         id="path42"
         style="fill:#d61c54;fill-opacity:1;fill-rule:nonzero;stroke:none"
         d="m 0,0 c 10.763,-0.063 19.856,-4.323 26.475,-12.503 16.535,-20.438 33.024,-40.94 48.707,-62.029 10.381,-13.958 8.214,-24.034 -6.262,-33.821 -6.647,-4.494 -13.891,-8.884 -21.509,-10.973 -10.108,-2.773 -20.109,0.719 -26.713,8.771 -18.196,22.188 -35.893,44.801 -53.153,67.723 -2.608,3.463 -3.154,9.703 -2.376,14.271 C -32.111,-12.587 -16.093,0.064 0,0" /></g><g
       transform="translate(383.1615,874.8267)"
       id="g44"><path
         id="path46"
         style="fill:#d61c54;fill-opacity:1;fill-rule:nonzero;stroke:none"
         d="M 0,0 C 2.01,-1.018 6.349,-2.325 9.563,-4.988 31,-22.753 48.82,-43.723 63.325,-67.467 c 5.062,-8.288 4.089,-13.142 -3.168,-19.58 -2.622,-2.326 -5.313,-4.574 -7.898,-6.94 -8.017,-7.337 -8.086,-7.519 -17.514,-2.885 -27.228,13.382 -49.31,33.223 -68.707,56.127 -2.534,2.992 -3.557,8.721 -2.832,12.741 C -34.623,-15.967 -14.409,-0.201 0,0" /></g><g
       transform="translate(509.0213,899.7159)"
       id="g48"><path
         id="path50"
         style="fill:#d61c54;fill-opacity:1;fill-rule:nonzero;stroke:none"
         d="m 0,0 c -3.797,2.375 -7.521,3.548 -9.405,6.087 -7.258,9.782 -15.382,19.314 -20.521,30.196 -11.732,24.845 11.764,57.242 39.167,54.785 3.668,-0.329 7.941,-2.945 10.426,-5.809 C 28.701,74.845 37.199,63.958 45.692,53.087 50.943,46.365 50.272,43.106 42.289,39.501 34.541,36.003 26.511,32.992 18.373,30.529 8.808,27.633 3.699,21.776 2.831,11.804 2.518,8.204 1.163,4.695 0,0" /></g><g
       transform="translate(587.7014,951.049)"
       id="g52"><path
         id="path54"
         style="fill:#d61c54;fill-opacity:1;fill-rule:nonzero;stroke:none"
         d="m 0,0 c -10.032,-1.392 -17.712,2.948 -22.918,12.094 -2.385,4.192 -4.937,8.301 -7.094,12.607 -10.684,21.327 0.633,41.735 24.453,44.405 C 10.795,70.939 23.007,63.46 32.623,51.41 37.629,45.136 41.459,37.831 45.201,30.669 49.365,22.697 48.106,18.733 40.57,13.405 28.608,4.947 15.231,0.584 0,0" /></g><g
       transform="translate(532.9181,827.0166)"
       id="g56"><path
         id="path58"
         style="fill:#d61c54;fill-opacity:1;fill-rule:nonzero;stroke:none"
         d="m 0,0 c 1.903,2.804 3.818,4.93 4.931,7.414 2.163,4.828 4.704,9.722 5.539,14.841 0.812,4.983 3.024,7.296 7.548,7.027 C 30.023,28.569 41.04,24.822 50.921,17.869 41.58,1.094 20.436,-6.553 0,0" /></g><g
       transform="translate(259.5642,692.3762)"
       id="g60"><path
         id="path62"
         style="fill:#d61c54;fill-opacity:1;fill-rule:nonzero;stroke:none"
         d="m 0,0 -41.018,-14.008 -15.591,-42.601 -15.619,42.601 -40.99,14.008 40.99,15.479 15.619,41.13 15.591,-41.13 z" /></g><g
       transform="translate(936.915,692.3762)"
       id="g64"><path
         id="path66"
         style="fill:#d61c54;fill-opacity:1;fill-rule:nonzero;stroke:none"
         d="M 0,0 -43.214,-14.758 -59.64,-59.64 -76.095,-14.758 -119.28,0 -76.095,16.308 -59.64,59.64 -43.214,16.308 Z" /></g><g
       transform="translate(142.9611,966.9882)"
       id="g68"><path
         id="path70"
         style="fill:#d61c54;fill-opacity:1;fill-rule:nonzero;stroke:none"
         d="m 0,0 c -0.261,-64.667 -9.137,-135.872 -48.521,-178.938 -60.245,-65.877 -45.387,148.518 -45.499,163.285 8.388,5.857 17.093,8.652 26.038,11.293 -0.415,-34.353 -1.645,-109.734 9.154,-111.459 5.415,0.165 8.842,3.882 11.198,8.68 12.56,25.577 18.668,63.761 19.024,94.468 0.409,35.297 -9.652,68.038 -26.065,99.502 -24.474,46.918 -39.357,110.821 -37.902,163.553 0.863,31.278 -5.94,140.698 48.83,140.422 56.698,-0.285 48.057,-109.57 48.489,-142.176 -9.707,-2.937 -19.402,-5.854 -29.079,-8.69 0.279,18.596 3.635,95.243 -19.778,96.36 -10.213,0.487 -19.342,-26.48 -19.5,-76.948 C -62.258,155.335 4.986,131.225 0,0" /></g><g
       transform="translate(246.4347,1355.6833)"
       id="g72"><path
         id="path74"
         style="fill:#d61c54;fill-opacity:1;fill-rule:nonzero;stroke:none"
         d="m 0,0 c -0.271,-7.67 -0.542,-21.534 -0.813,-38.215 -11.071,-1.234 -22.134,-2.553 -33.191,-3.959 -1.704,-128.388 -8.434,-259.182 -9.167,-387.55 -9.81,-9.703 -19.613,-18.446 -29.381,-30.489 1.396,138.054 7.632,276.029 9.21,414.096 -11.045,-1.565 -22.081,-3.22 -33.11,-4.97 0.207,21.898 0.414,40.821 0.621,50.559 C -63.888,-0.321 -31.944,-0.146 0,0" /></g><g
       transform="translate(323.8858,1270.111)"
       id="g76"><path
         id="path78"
         style="fill:#d61c54;fill-opacity:1;fill-rule:nonzero;stroke:none"
         d="m 0,0 c 0.687,44.55 -5.31,54.267 -35.331,51.724 -2.551,-0.235 -5.1,-0.475 -7.649,-0.718 -0.699,-43.043 -1.154,-86.095 -2.236,-129.131 2.554,0.504 5.11,1.017 7.667,1.536 30.115,6.129 36.657,18.075 37.278,59.017 C -0.181,-11.791 -0.09,-5.9 0,0 m 24.27,-213.126 c -0.452,-18.631 -0.747,-33.362 -1.247,-39.01 -10.256,-4.749 -22.522,-9.635 -30.82,-14.2 0,0 0.847,14.109 1.375,32.348 0.879,30.397 1.738,60.795 2.614,91.192 1.743,60.283 -16.382,44.567 -34.48,37.251 -2.671,-1.078 -5.342,-2.206 -8.013,-3.385 -1.958,-63.679 -3.651,-119.421 -5.814,-183.093 -9.643,-5.974 -24.687,-16.656 -29.373,-19.504 4.756,132.361 6.275,264.751 9.911,397.126 12.25,0.056 24.502,0.108 36.754,0.156 C 21.754,87.466 31.822,58.226 29.544,5.297 29.462,-0.322 29.379,-5.959 29.296,-11.528 28.669,-54.24 21.652,-77.578 1.564,-84.674 c 16.765,-0.902 25.865,0.488 24.615,-49.974 -0.582,-23.429 -1.26,-51.779 -1.909,-78.478" /></g><g
       transform="translate(356.6602,1022.185)"
       id="g80"><path
         id="path82"
         style="fill:#d61c54;fill-opacity:1;fill-rule:nonzero;stroke:none"
         d="m 0,0 c 2.582,111.958 3.867,221.994 7.086,333.93 9.803,0.026 19.606,0.051 29.41,0.073 C 33.859,226.292 32.692,118.738 30.736,11.011 20.991,7.913 7.835,2.95 0,0" /></g><g
       transform="translate(485.2145,1356.3319)"
       id="g84"><path
         id="path86"
         style="fill:#d61c54;fill-opacity:1;fill-rule:nonzero;stroke:none"
         d="m 0,0 c 10.295,0.009 20.589,0.015 30.883,0.02 0,0 -34.815,-93.02 -49.798,-138.978 19.465,-55.522 37.468,-100.051 48.857,-160.397 -10.661,-0.479 -21.329,-1.698 -32.006,-2.861 -11.21,59.5 -27.411,104.979 -47.613,159.734 C -34.644,-95.405 0,0 0,0 m -82.485,-318.427 c 1.68,106.007 2.68,212.323 5.127,318.315 9.804,0.02 19.608,0.037 29.413,0.053 -2.011,-103.244 -2.722,-207.244 -3.914,-310.501 -10.198,-2.342 -20.08,-4.829 -30.626,-7.867" /></g><g
       transform="translate(599.9254,1355.9113)"
       id="g88"><path
         id="path90"
         style="fill:#d61c54;fill-opacity:1;fill-rule:nonzero;stroke:none"
         d="m 0,0 c 0.08,-5.21 0.16,-17.684 0.24,-28 -15.26,0.463 -30.523,0.767 -45.786,0.88 0.047,-31.305 0.082,-58.503 0.12,-89.808 15.425,-0.228 30.849,-0.947 46.266,-2.125 0.08,-12.553 0.16,-24.047 0.24,-33.281 -15.479,1.069 -30.968,1.734 -46.458,1.939 0.04,-23.537 0.072,-65.126 0.116,-114.589 15.651,-0.753 31.316,-2.225 46.981,-4.544 0.101,-19.819 0.208,-9.784 0.314,-32.268 -25.925,3.321 -51.792,4.227 -77.671,3.462 0.157,99.592 0.255,199.186 0.63,298.777 C -50.005,0.45 -25.003,0.355 0,0" /></g><g
       transform="translate(795.1389,1067.4612)"
       id="g92"><path
         id="path94"
         style="fill:#d61c54;fill-opacity:1;fill-rule:nonzero;stroke:none"
         d="m 0,0 36.256,285.126 c 0,0 29.079,-0.103 39.956,-0.16 C 48.23,162.044 48.209,34.354 17.034,-87.504 c -13.8,9.015 -29.256,17.166 -44.845,25.27 -2.102,95.449 -4.625,190.106 -6.127,285.566 -13.979,-89.258 -33.46,-173.624 -44.758,-263.656 -15.695,5.711 -31.663,10.425 -47.412,14.745 -1.216,104.724 -2.141,208.144 -4.408,312.851 9.805,-0.201 19.608,-0.406 29.412,-0.603 1.964,-77.5 2.765,-155.061 4.119,-232.575 11.13,75.254 25.221,158.487 45.288,231.693 15.293,-0.223 30.585,-0.387 45.876,-0.454 C -3.174,190.266 0,0 0,0" /></g><g
       transform="translate(951.5285,1351.9792)"
       id="g96"><path
         id="path98"
         style="fill:#d61c54;fill-opacity:1;fill-rule:nonzero;stroke:none"
         d="m 0,0 0.519,-46.735 -47.029,2.023 -6.974,-136.425 51.311,-13.582 -0.016,-53.102 -54.147,20.47 -4.377,-152.79 61.11,-51.397 c 0,0 -0.776,-45.3 -0.397,-71.487 -35.16,48.898 -77.526,85.202 -98.779,102.431 L -74.955,0.441 Z" /></g><g
       transform="translate(1037.3679,1351.3116)"
       id="g100"><path
         id="path102"
         style="fill:#d61c54;fill-opacity:1;fill-rule:nonzero;stroke:none"
         d="m 0,0 v -63.73 l -45.202,5.306 0.721,-155.038 L 0,-230.184 v -61.565 l -44.305,25.814 c 0,0 1.674,-231.062 2.258,-309.16 -7.135,13.473 -20.11,37.825 -29.803,52.362 -1.949,177.168 -0.931,346.137 -3.076,523.302 C -49.946,0.398 -24.971,0.209 0,0" /></g></g></g>
</g><path
     style="fill:#ffce00;fill-opacity:1;fill-rule:evenodd;stroke:#ffce00;stroke-width:4.01945;stroke-linecap:square;stroke-dasharray:none;stroke-opacity:1;paint-order:fill markers stroke"
     d="m 786.9653,458.99311 c -18.35109,-2.04349 -64.65737,-3.98654 -77.12484,-3.23622 l -11.01552,0.66294 0.70247,-68.39983 c 0.38636,-37.61989 0.70247,-127.10571 0.70247,-198.85737 V 58.705073 h 46.40874 c 25.52481,0 47.8962,0.297492 49.71421,0.661093 l 3.30546,0.661093 v 17.760952 17.760951 l -30.67472,-0.603409 -30.67472,-0.60341 v 60.255707 60.25571 l 29.71958,1.32941 c 16.34577,0.73118 30.38739,1.58567 31.2036,1.89888 1.20558,0.46263 1.48401,4.5685 1.48401,21.88383 v 21.31437 l -11.89967,-0.67069 c -6.54483,-0.36888 -20.34845,-1.002 -30.67473,-1.40692 L 739.3666,258.4664 v 77.29231 77.2923 l 6.61093,0.0209 c 7.01211,0.0221 31.12027,2.26469 46.54096,4.32919 l 9.2553,1.23909 V 439.645 c 0,16.17919 -0.30375,20.97007 -1.32218,20.85372 -0.72721,-0.083 -6.79604,-0.76057 -13.48631,-1.50556 z"
     id="path4710" /><path
     style="fill:#ffce00;fill-opacity:1;fill-rule:evenodd;stroke:#ffce00;stroke-width:4.01945;stroke-linecap:square;stroke-dasharray:none;stroke-opacity:1;paint-order:fill markers stroke"
     d="m 641.63883,445.6692 c -9.82671,-48.7133 -26.23025,-104.09341 -50.75316,-171.34816 -5.01803,-13.76206 -9.12368,-25.73649 -9.12368,-26.60984 0,-3.58925 62.56932,-183.076279 65.43939,-187.720153 0.62609,-1.013032 5.52568,-1.264618 20.36215,-1.045564 l 19.53768,0.288465 -12.49297,33.84797 C 655.75598,144.15952 641.79648,183.03345 630.89868,214.80277 l -9.82398,28.63895 12.6213,35.35487 c 25.69514,71.97736 38.55014,113.69802 47.39601,153.82278 5.70579,25.88138 5.63026,24.27539 1.15614,24.58161 -9.45622,0.64723 -30.52133,2.55499 -33.84797,3.06546 l -3.70212,0.56809 z"
     id="path4712" /><path
     style="fill:#ffce00;fill-opacity:1;fill-rule:evenodd;stroke:#ffce00;stroke-width:4.01945;stroke-linecap:square;stroke-dasharray:none;stroke-opacity:1;paint-order:fill markers stroke"
     d="m 537.78178,454.66548 c 0.36061,-15.03417 1.13182,-63.27188 1.71379,-107.19491 0.58197,-43.92303 1.51762,-108.18129 2.07922,-142.79613 0.5616,-34.61483 1.28626,-79.59561 1.61036,-99.95728 0.3241,-20.361672 0.83587,-39.044165 1.13726,-41.516653 l 0.54798,-4.495434 h 19.04904 19.04903 l -0.61599,14.54405 c -0.82896,19.572682 -4.80124,333.466267 -4.81588,380.555837 l -0.006,18.01234 -18.77505,4.72927 c -10.32627,2.60108 -19.41737,4.89228 -20.20243,5.09151 -1.18307,0.30026 -1.31517,-4.31647 -0.77173,-26.9726 z"
     id="path4714" /><path
     style="fill:#ffce00;fill-opacity:1;fill-rule:evenodd;stroke:#ffce00;stroke-width:4.01945;stroke-linecap:square;stroke-dasharray:none;stroke-opacity:1;paint-order:fill markers stroke"
     d="m 476.41662,481.56369 c 0.36517,-11.79356 1.13573,-46.19417 1.71236,-76.4458 4.61043,-241.87649 5.74676,-295.46469 6.95877,-328.166645 L 485.764,58.705073 h 19.05431 19.0543 l -0.69408,25.12154 c -0.87567,31.693807 -2.41352,112.841707 -3.83372,202.294507 -0.60499,38.10541 -1.56279,94.98587 -2.12846,126.40102 -0.56566,31.41514 -1.0299,61.41756 -1.03164,66.67202 l -0.003,9.55358 -9.78418,3.28767 c -5.3813,1.80821 -14.47779,5.01644 -20.21443,7.1294 l -10.43025,3.84173 0.66394,-21.44285 z"
     id="path4716" /><path
     style="fill:#ffce00;fill-opacity:1;fill-rule:evenodd;stroke:#ffce00;stroke-width:4.01945;stroke-linecap:square;stroke-dasharray:none;stroke-opacity:1;paint-order:fill markers stroke"
     d="m 324.11112,573.65538 c 1.59178,-33.69575 4.21303,-133.26442 7.4861,-284.36101 4.51708,-208.523874 4.94747,-226.856799 5.35751,-228.209361 0.59213,-1.953224 67.80062,-1.792799 78.74065,0.187952 32.86834,5.950986 49.27593,24.957804 54.00965,62.565659 1.78773,14.20289 0.68224,85.29287 -1.57831,101.49585 -4.38257,31.41295 -14.03303,50.53518 -29.11815,57.69713 -2.85414,1.35505 -4.95523,2.84253 -4.6691,3.3055 0.28614,0.46297 2.7531,0.84443 5.48213,0.84767 11.92388,0.0142 18.8283,4.67548 22.34348,15.0845 4.35675,12.90105 4.7102,25.78206 2.85817,104.1624 -0.94518,40.00076 -2.0148,79.47901 -2.37697,87.72944 l -0.65848,15.00079 -9.13104,3.92061 c -5.02206,2.15634 -14.07502,6.23413 -20.11768,9.06177 l -10.98664,5.14115 0.59384,-7.13856 c 0.32661,-3.92622 1.6754,-44.64514 2.9973,-90.48649 2.59456,-89.97455 2.38364,-100.78226 -2.20629,-113.04995 -2.95211,-7.89021 -5.65495,-11.14904 -10.3138,-12.43541 -5.39063,-1.48843 -10.84162,-0.0474 -28.59614,7.55991 l -15.07293,6.45829 -0.008,9.61436 c -0.004,5.2879 -0.47309,23.65599 -1.04135,40.81797 -0.56827,17.16198 -1.98475,61.90476 -3.14775,99.42841 -1.16299,37.52365 -2.409,74.06843 -2.76891,81.21062 l -0.65438,12.9858 -19.04457,12.75555 -19.04457,12.75556 z m 58.5408,-298.06618 c 29.84881,-6.68374 41.06795,-16.71047 46.20905,-41.29778 3.98106,-19.03945 4.67271,-85.73925 1.06994,-103.18138 -2.94873,-14.27572 -7.17979,-20.542 -16.89308,-25.01903 -4.80519,-2.2148 -6.71321,-2.42431 -21.39991,-2.34979 -8.86839,0.045 -16.46337,0.42085 -16.87774,0.83522 -0.41437,0.41437 -1.08845,23.22493 -1.49796,50.69014 -0.40951,27.46521 -1.07682,66.2393 -1.48291,86.16464 -0.53909,26.45154 -0.41898,36.22791 0.44508,36.22791 0.65089,0 5.34327,-0.93148 10.42753,-2.06993 z"
     id="path4718" /><path
     style="fill:#ffce00;fill-opacity:1;fill-rule:evenodd;stroke:#ffce00;stroke-width:4.01945;stroke-linecap:square;stroke-dasharray:none;stroke-opacity:1;paint-order:fill markers stroke"
     d="m 233.08428,622.29147 c 0.80666,-53.73019 1.67989,-90.66949 5.44646,-230.39544 4.96144,-184.05131 6.71732,-271.84151 5.43707,-271.84151 -0.3859,0 -10.05426,1.42796 -21.48523,3.17325 -11.43098,1.74528 -20.94709,3.17324 -21.14693,3.17324 -0.19983,0 -0.36333,-14.99359 -0.36333,-33.319092 V 59.762822 h 63.62284 63.62284 l -0.76157,24.57932 c -0.41887,13.518627 -0.92507,24.742818 -1.1249,24.942658 -0.28054,0.28054 -40.11575,5.33965 -42.9551,5.45534 -0.34605,0.0141 -0.95595,17.99415 -1.35532,39.95566 -0.83557,45.94769 -1.78554,81.7328 -5.41239,203.88113 -3.93835,132.63935 -4.67548,162.39923 -5.45204,220.11258 l -0.71299,52.98824 -19.03952,19.27373 -19.03952,19.27373 z"
     id="path4720" /><path
     style="fill:#ffce00;fill-opacity:1;fill-rule:evenodd;stroke:#ffce00;stroke-width:4.01945;stroke-linecap:square;stroke-dasharray:none;stroke-opacity:1;paint-order:fill markers stroke"
     d="M 91.353376,829.89024 C 87.416502,827.48966 83.718034,822.7688 80.098825,815.52453 66.16922,787.64279 60.919626,716.70453 65.216438,614.41742 l 0.67216,-16.00104 6.456854,-3.7398 c 5.542733,-3.21034 23.412709,-10.27022 25.996001,-10.27022 0.47299,0 1.096675,23.20437 1.385965,51.56527 0.513442,50.33612 1.312282,64.73065 4.461922,80.40106 1.64298,8.17432 3.56501,12.75324 6.30926,15.03076 2.5144,2.08677 9.25693,-0.27163 12.82094,-4.48451 5.58227,-6.59859 13.46914,-26.76009 18.99367,-48.55421 9.78913,-38.6179 13.08385,-88.6832 8.02788,-121.98872 C 145.61083,525.216 137.802,501.92291 118.95877,462.76522 104.72383,433.18389 101.31013,425.04988 93.590341,402.31847 80.515574,363.819 71.842435,322.06988 68.802796,283.00088 67.414503,265.1569 67.398811,205.04365 68.775861,179.81734 71.797104,124.47089 81.224062,90.425052 98.700739,71.742429 113.49605,55.926193 135.18751,52.368179 154.6061,62.572364 c 16.84911,8.853957 29.32025,30.615336 35.67,62.242026 4.32538,21.54374 5.56678,37.66841 6.14827,79.86005 l 0.56124,40.72334 -17.83943,5.20746 c -9.8117,2.8641 -18.43443,5.41396 -19.16163,5.66635 -1.03692,0.35988 -1.32463,-5.89856 -1.33351,-29.00681 -0.0231,-60.14601 -6.46344,-89.47606 -21.35557,-97.25608 -12.06694,-6.30406 -21.57703,7.68479 -27.2515,40.08555 -4.50233,25.70785 -5.6988,66.26733 -2.70884,91.82769 4.25223,36.35123 12.36254,61.64356 36.74527,114.59172 15.44744,33.54478 21.56561,48.04243 27.24827,64.5677 8.11272,23.59188 13.38457,46.69684 16.53225,72.45581 4.48816,36.72874 2.35672,114.97543 -4.36503,160.24415 -8.81185,59.34473 -26.8296,104.76003 -54.61416,137.65972 -15.00392,17.76614 -28.09461,24.20161 -37.528354,18.4492 z"
     id="path4722" /><path
     style="fill:#ffce00;fill-opacity:1;fill-rule:evenodd;stroke:#ffce00;stroke-width:7.05762;stroke-linecap:square;stroke-dasharray:none;stroke-opacity:1;paint-order:fill markers stroke"
     d="m 1061.8265,546.25315 c -11.0174,-6.44364 -24.1807,-13.65905 -29.2519,-16.03427 l -9.2203,-4.31856 -0.013,-17.79089 c -0.01,-9.78498 -1.2196,-70.02652 -2.6939,-133.87008 -1.4743,-63.84356 -3.2369,-141.40352 -3.9169,-172.35547 -0.68,-30.95195 -1.5705,-55.94215 -1.9788,-55.53379 -0.4084,0.40836 -3.6873,17.79287 -7.2865,38.63223 -3.5992,20.83936 -12.33066,69.23113 -19.40326,107.53727 -14.67527,79.48324 -22.11532,123.17437 -28.79922,169.12142 -2.57061,17.67106 -4.99903,32.45441 -5.3965,32.85188 -0.39747,0.39748 -11.04304,-2.57081 -23.65682,-6.59618 -12.61378,-4.02536 -25.64082,-7.90776 -28.94897,-8.62752 -3.30815,-0.71977 -6.49611,-2.0874 -7.08436,-3.03922 -0.58824,-0.95179 -1.80811,-59.60035 -2.7108,-130.33012 -0.9027,-70.72977 -2.22011,-163.70193 -2.92759,-206.60481 l -1.28632,-78.005221 18.55198,0.581603 18.55198,0.581604 1.19549,50.493244 c 0.65752,27.77129 1.64193,86.01348 2.18758,129.42711 0.54565,43.41362 1.54212,90.21675 2.21437,104.00696 l 1.22228,25.07311 2.41971,-13.9295 c 1.33083,-7.66123 6.22867,-37.33108 10.88407,-65.93299 12.92107,-79.38455 30.51166,-164.62865 45.32152,-219.628258 l 2.12374,-7.886982 h 29.45442 29.4544 l 1.1286,24.608791 c 1.1167,24.346989 3.5908,140.174509 6.0122,281.456519 0.6879,40.13803 1.8178,72.31519 2.5108,71.50479 1.0043,-1.17424 48.5532,-371.061663 48.3575,-376.177149 -0.029,-0.766123 11.7038,-1.392951 26.0736,-1.392951 24.0214,0 26.0472,0.261926 25.1378,3.250218 -2.3224,7.630954 -10.7143,52.249852 -15.8066,84.041342 -6.1717,38.53122 -11.3435,77.61782 -22.4855,169.93995 -4.1915,34.7309 -10.1189,80.28038 -13.172,101.22107 -5.4965,37.70013 -19.778,112.52718 -24.357,127.61714 l -2.3739,7.82339 z"
     id="path4724" /><path
     style="fill:#ffce00;fill-opacity:1;fill-rule:evenodd;stroke:#ffce00;stroke-width:7.05762;stroke-linecap:square;stroke-dasharray:none;stroke-opacity:1;paint-order:fill markers stroke"
     d="m 1251.7547,710.86904 c -18.8288,-24.09342 -67.5581,-74.13565 -94.0064,-96.53917 -12.4091,-10.51139 -19.247,-17.60745 -19.2765,-20.00435 -0.089,-7.23053 29.8688,-514.583913 30.8439,-522.356414 l 0.9903,-7.893386 h 49.1037 49.1038 v 30.667171 30.667169 l -31.5735,-1.24125 -31.5736,-1.24125 -0.065,7.25511 c -0.036,3.99031 -2.0444,44.86477 -4.4635,90.83213 -2.4191,45.96737 -3.8524,84.1218 -3.185,84.78765 0.9788,0.97665 63.852,18.29068 66.4197,18.29068 0.3996,0 0.7266,15.5314 0.7266,34.51422 0,18.98283 -0.6834,34.23563 -1.5187,33.89512 -16.5175,-6.73319 -69.3479,-26.00904 -69.842,-25.48274 -1.5177,1.61647 -6.6336,204.81382 -5.1816,205.80324 0.8658,0.58994 19.2777,15.98708 40.9155,34.21588 l 39.3413,33.14327 v 45.32627 c 0,24.92945 -0.26,45.32627 -0.5779,45.32627 -0.3179,0 -7.5993,-8.98453 -16.1809,-19.96562 z"
     id="path4726" /><path
     style="fill:#ffce00;fill-opacity:1;fill-rule:evenodd;stroke:#ffce00;stroke-width:7.05762;stroke-linecap:square;stroke-dasharray:none;stroke-opacity:1;paint-order:fill markers stroke"
     d="m 1317.8593,812.24916 c -4.0155,-7.49333 -12.3141,-21.98195 -18.4414,-32.19692 l -11.1404,-18.57267 -1.4497,-268.37512 c -0.7974,-147.60631 -1.6922,-304.10469 -1.9886,-347.77418 l -0.5389,-79.39906 48.7533,8.88e-4 48.7532,8.89e-4 v 41.393253 41.39325 l -27.3947,-3.24034 c -15.067,-1.78219 -28.4463,-3.27586 -29.7317,-3.31928 -1.8566,-0.0627 -2.2384,21.34603 -1.8573,104.13007 l 0.4798,104.20898 28.7877,10.73856 28.7876,10.73853 0.5002,40.00988 0.5002,40.0099 -28.888,-16.83607 c -15.8884,-9.25983 -29.1115,-16.51684 -29.3846,-16.12669 -0.2731,0.39016 0.1851,85.95793 1.018,190.15063 0.833,104.19269 1.2944,195.57217 1.0254,203.0655 l -0.4892,13.62424 z"
     id="path4728" /><path
     style="fill:#ffce00;fill-opacity:1;fill-rule:evenodd;stroke:#ffce00;stroke-width:7.05762;stroke-linecap:square;stroke-dasharray:none;stroke-opacity:1;paint-order:fill markers stroke"
     d="m 643.02033,1346.0021 -76.67073,-42.2005 1.09108,-44.5744 c 2.79371,-114.133 4.1174,-234.9173 2.67234,-243.8472 -2.53923,-15.69142 -9.43979,-28.19376 -24.37737,-44.16656 -30.54946,-32.6666 -40.83266,-53.90224 -54.54822,-112.64643 -5.61527,-24.05039 -5.43103,-34.84683 0.69926,-40.97711 3.70283,-3.70283 3.71226,-3.70194 11.93779,1.11854 4.52761,2.65335 18.17591,12.10232 30.32954,20.99771 24.29943,17.78504 29.40403,20.41261 36.29547,18.68297 2.55094,-0.64024 14.19017,-9.76891 25.86497,-20.28593 29.1212,-26.23325 34.46889,-30.169 52.42588,-38.58392 17.0592,-7.99422 30.6024,-11.61649 55.77959,-14.9188 14.25876,-1.87021 17.45354,-1.74996 24.44504,0.92011 4.42343,1.68933 8.56956,4.44472 9.21361,6.12307 1.84805,4.81595 -5.50912,16.9831 -37.35121,61.77065 -45.48645,63.97905 -46.88266,66.3193 -41.53729,69.62293 5.52609,3.41531 19.01091,-13.71811 68.90216,-87.54508 14.14795,-20.93554 29.99384,-42.99387 35.2131,-49.01853 18.72641,-21.61619 46.65301,-38.44038 77.20422,-46.51116 8.77833,-2.31899 16.29052,-5.11248 16.69371,-6.20776 0.40319,-1.09527 -2.39632,-11.60276 -6.22112,-23.34998 -8.31709,-25.54446 -8.59031,-25.68535 -29.53462,-15.22979 -27.34207,13.64938 -39.1529,17.49979 -53.67927,17.49979 -24.54507,0 -54.15701,-12.56486 -61.82812,-26.23473 -5.01521,-8.93709 -6.02473,-26.69331 -1.89368,-33.30814 2.76064,-4.4205 17.53096,-11.94054 45.26087,-23.04375 41.22718,-16.50758 107.9297,-38.71097 126.74053,-42.18834 12.79698,-2.36566 15.42019,-1.00655 28.90841,14.97779 20.92525,24.79768 31.76853,42.4564 57.29886,93.3135 28.70125,57.17362 28.82199,57.61561 19.55549,71.58498 -12.51395,18.865 -78.11919,101.31312 -126.04371,158.40307 -10.01427,11.92947 -20.09537,24.8839 -22.40243,28.78764 -5.06666,8.57318 -5.01616,-0.2904 -0.84988,149.17866 1.72263,61.8005 3.34631,136.5629 3.60817,166.1385 l 0.47613,53.7738 -58.37208,32.1248 c -32.10464,17.6686 -58.43141,32.1012 -58.50391,32.0724 -0.0724,-0.029 -34.63367,-19.0426 -76.80258,-42.2528 z"
     id="path4730" /><path
     style="fill:#ffce00;fill-opacity:1;fill-rule:evenodd;stroke:#ffce00;stroke-width:7.05762;stroke-linecap:square;stroke-dasharray:none;stroke-opacity:1;paint-order:fill markers stroke"
     d="m 717.36947,764.92016 c -2.29836,-0.50217 -4.17885,-1.16753 -4.17885,-1.47857 0,-0.31104 2.03343,-4.22282 4.51873,-8.69284 2.4853,-4.47002 5.52767,-12.16853 6.76082,-17.10779 2.98756,-11.96638 6.55236,-13.49248 22.7449,-9.73718 12.84969,2.98004 26.04808,8.74503 28.27678,12.35116 1.86894,3.024 -9.87483,14.36426 -20.51271,19.80791 -9.19549,4.70554 -27.49025,7.06832 -37.60967,4.85731 z"
     id="path4732" /><path
     style="fill:#ffce00;fill-opacity:1;fill-rule:evenodd;stroke:#ffce00;stroke-width:7.05762;stroke-linecap:square;stroke-dasharray:none;stroke-opacity:1;paint-order:fill markers stroke"
     d="m 624.97043,783.90768 c -7.26877,-3.26089 -14.54652,-11.17903 -40.2454,-43.78668 -48.88435,-62.02623 -48.83964,-61.94987 -45.59142,-77.86236 1.30573,-6.39657 4.00238,-10.5235 12.18331,-18.64529 15.97831,-15.86277 33.51476,-19.29593 51.86194,-10.15314 8.24522,4.10876 13.43395,9.61717 37.17653,39.46693 47.84523,60.15221 50.54803,64.18924 50.54803,75.50083 0,9.67793 -11.4534,21.33183 -30.17317,30.70137 -16.01209,8.01431 -25.66996,9.30482 -35.75982,4.77834 z"
     id="path4734" /><path
     style="fill:#ffce00;fill-opacity:1;fill-rule:evenodd;stroke:#ffce00;stroke-width:7.05762;stroke-linecap:square;stroke-dasharray:none;stroke-opacity:1;paint-order:fill markers stroke"
     d="m 671.73628,661.89078 c -4.50531,-2.61562 -24.48578,-29.70891 -30.58575,-41.47395 -9.3684,-18.06884 -5.57901,-39.42522 10.0767,-56.79068 12.47187,-13.83393 33.25136,-20.35488 46.1438,-14.4807 7.07388,3.22308 45.53587,50.99622 45.53587,56.55952 0,3.76918 -6.77403,7.43635 -28.93507,15.66418 -22.65434,8.41098 -29.57617,13.98344 -31.47865,25.34204 -2.6894,16.05687 -4.60052,18.75375 -10.7569,15.17959 z"
     id="path4736" /><path
     style="fill:#ffce00;fill-opacity:1;fill-rule:evenodd;stroke:#ffce00;stroke-width:7.05762;stroke-linecap:square;stroke-dasharray:none;stroke-opacity:1;paint-order:fill markers stroke"
     d="m 761.94924,590.79477 c -3.83356,-3.47416 -10.29621,-12.45869 -14.36146,-19.96562 -6.4584,-11.92617 -7.39611,-15.18892 -7.42907,-25.84922 -0.05,-16.16094 5.61415,-25.22528 20.23165,-32.37696 27.79582,-13.59923 56.9429,-0.10603 77.11285,35.69822 9.28803,16.48744 9.6454,22.57525 1.71682,29.2467 -14.06209,11.83247 -36.47402,19.56353 -56.71363,19.56353 -12.84832,0 -13.96603,-0.34344 -20.55716,-6.31665 z"
     id="path4738" /><path
     style="fill:#ffce00;fill-opacity:1;fill-rule:evenodd;stroke:#ffce00;stroke-width:7.05762;stroke-linecap:square;stroke-dasharray:none;stroke-opacity:1;paint-order:fill markers stroke"
     d="m 554.49429,826.60333 c -27.34743,-14.25445 -57.42477,-37.83893 -77.3537,-60.65516 -12.30897,-14.0923 -14.68105,-18.20055 -14.68105,-25.42641 0,-6.14895 7.53498,-17.45562 16.90327,-25.36433 7.41122,-6.25656 23.25161,-13.99499 28.70048,-14.0209 13.26592,-0.0631 55.24252,42.16041 80.99917,81.4756 8.98185,13.70997 10.6087,19.70968 7.11465,26.23836 -2.1255,3.97154 -25.37076,24.13387 -27.82407,24.13387 -0.88914,0 -7.12558,-2.87146 -13.85875,-6.38103 z"
     id="path4740" /><path
     style="fill:#ffce00;fill-opacity:1;fill-rule:evenodd;stroke:#ffce00;stroke-width:7.05762;stroke-linecap:square;stroke-dasharray:none;stroke-opacity:1;paint-order:fill markers stroke"
     d="m 50.603552,1573.8444 0.471297,-239.7771 109.545761,-67.5243 109.54577,-67.5244 7.46207,4.3151 c 23.25696,13.4488 438.66054,241.3633 441.04836,241.9847 1.57932,0.4109 103.8058,-54.8 227.16993,-122.691 l 224.29846,-123.4382 109.081,67.2315 109.0811,67.2316 0.4713,239.9846 0.4713,239.9846 H 719.69106 50.132254 Z m 191.769828,135.9647 104.00696,-57.2854 0.47676,-131.1108 0.47674,-131.1109 -38.34391,-72.9665 c -21.08916,-40.1315 -39.00781,-73.7044 -39.81922,-74.6064 -0.8114,-0.9019 -39.97226,22.0818 -87.02413,51.0749 l -85.548853,52.7148 -0.0099,210.3355 -0.0099,210.3355 20.894253,-0.048 20.89426,-0.048 104.00697,-57.2854 z m 801.57712,-80.6679 c 132.9029,-75.9268 241.7052,-138.6856 241.7831,-139.4642 0.078,-0.7785 -26.9575,-53.1981 -60.0784,-116.4879 -48.2427,-92.1853 -60.8487,-114.9088 -63.3808,-114.25 -3.6452,0.9482 -926.43121,504.1086 -929.0945,506.6001 -1.02951,0.9631 117.12618,1.6506 283.68236,1.6506 h 285.44677 z"
     id="path4742" /><path
     style="fill:#ffce00;fill-opacity:1;fill-rule:evenodd;stroke:#ffce00;stroke-width:7.05762;stroke-linecap:square;stroke-dasharray:none;stroke-opacity:1;paint-order:fill markers stroke"
     d="m 261.1816,990.29594 c -4.86029,-13.58058 -9.43632,-25.66185 -10.16894,-26.84727 -0.73263,-1.18541 -12.8786,-6.22135 -26.99106,-11.19099 l -25.65902,-9.03569 24.53205,-9.02486 c 13.49263,-4.96368 25.50518,-9.99799 26.69455,-11.18737 1.18938,-1.18937 6.27903,-13.14362 11.31034,-26.56498 5.57373,-14.8683 9.70684,-23.50623 10.57859,-22.10856 0.78691,1.26166 5.38607,12.88671 10.22035,25.83344 l 8.7896,23.53953 26.6338,9.86441 26.63381,9.86442 -26.55879,8.85293 -26.55879,8.85293 -8.99021,24.78689 c -4.94462,13.63279 -9.58403,25.74773 -10.3098,26.92203 -0.72577,1.1743 -5.29618,-8.9763 -10.15648,-22.55686 z"
     id="path4744" /><path
     style="fill:#ffce00;fill-opacity:1;fill-rule:evenodd;stroke:#ffce00;stroke-width:7.05762;stroke-linecap:square;stroke-dasharray:none;stroke-opacity:1;paint-order:fill markers stroke"
     d="m 1158.8577,990.53676 -10.2845,-27.99601 -25.9285,-9.05883 c -14.2606,-4.98236 -26.6589,-9.30294 -27.5517,-9.6013 -0.8929,-0.29835 10.7571,-5.21371 25.8888,-10.92303 l 27.5122,-10.38057 10.3071,-27.08024 c 5.6688,-14.89413 10.8398,-26.48583 11.4909,-25.75934 0.6511,0.7265 5.1497,11.9559 9.9968,24.95424 4.8471,12.99835 9.7562,24.80676 10.9092,26.24093 1.1529,1.43416 13.9778,7.0639 28.4998,12.51052 l 26.4037,9.90294 -26.7901,9.35918 c -14.7346,5.14755 -27.5243,10.19495 -28.4216,11.21645 -0.8973,1.0215 -5.6455,13.14017 -10.5515,26.93038 -4.9061,13.79022 -9.4322,25.65982 -10.0581,26.37692 -0.6258,0.7171 -5.7659,-11.2944 -11.4225,-26.69224 z"
     id="path4746" /></svg>
